<svg role="img" aria-labelledby="adaptavist-logo-icon" viewBox="0 0 126 27" version="1.1" xmlns="http://www.w3.org/2000/svg" xmlns:xlink="http://www.w3.org/1999/xlink" class="Root__Svg-ib9alu-0 UAAOw"><title id="adaptavist-logo-icon">adaptavist-logo Icon</title><g stroke="none" stroke-width="1" fill="currentColor" fill-rule="evenodd"><path fill="#031534" d="M41.5606081,19.3347458 L40.3696335,15.7221229 L35.427089,15.7221229 L34.2361144,19.3347458 L31.5961208,19.3347458 L36.5585148,5.24154661 L39.2382076,5.24154661 L44.2006017,19.3347458 L41.5606081,19.3347458 Z M37.9281356,7.68304449 L37.8884364,7.68304449 C37.8884364,7.68304449 37.5708432,9.07251483 37.2929492,9.86649788 L36.0424258,13.6379174 L39.734447,13.6379174 L38.4839237,9.86649788 C38.2258792,9.07251483 37.9281356,7.68304449 37.9281356,7.68304449 Z M44.7378559,14.2731038 C44.7378559,11.0574725 46.6434153,8.97326695 49.3231081,8.97326695 C51.5462606,8.97326695 52.2409958,10.2634894 52.2409958,10.2634894 L52.2806949,10.2634894 C52.2806949,10.2634894 52.2608453,10.0054449 52.2608453,9.68785169 L52.2608453,5.24154661 L54.7817415,5.24154661 L54.7817415,19.3347458 L52.3997924,19.3347458 L52.3997924,18.5010636 C52.3997924,18.1239216 52.4394915,17.8460275 52.4394915,17.8460275 L52.3997924,17.8460275 C52.3997924,17.8460275 51.5462606,19.5729407 49.2238602,19.5729407 C46.4846186,19.5729407 44.7378559,17.4093369 44.7378559,14.2731038 Z M47.2786017,14.2731038 C47.2786017,16.1985127 48.3107797,17.449036 49.7994979,17.449036 C51.1095699,17.449036 52.3402436,16.4962564 52.3402436,14.2532542 C52.3402436,12.6851377 51.5065614,11.1368708 49.8193475,11.1368708 C48.4298771,11.1368708 47.2786017,12.2682966 47.2786017,14.2731038 Z M56.5298199,16.4168581 C56.5298199,13.2012267 60.8768771,12.9828814 62.524392,12.9828814 L62.8618348,12.9828814 L62.8618348,12.8439343 C62.8618348,11.5140127 62.0281526,11.0574725 60.9165763,11.0574725 C59.4675572,11.0574725 58.1376356,12.0301017 58.1376356,12.0301017 L57.1848559,10.2237903 C57.1848559,10.2237903 58.7529725,8.97326695 61.1547712,8.97326695 C63.8146144,8.97326695 65.3628814,10.4421356 65.3628814,13.0027309 L65.3628814,19.3347458 L63.0404809,19.3347458 L63.0404809,18.5010636 C63.0404809,18.104072 63.0801801,17.7864788 63.0801801,17.7864788 L63.0404809,17.7864788 C63.0603305,17.7864788 62.2663475,19.5729407 59.9637966,19.5729407 C58.1574852,19.5729407 56.5298199,18.4415148 56.5298199,16.4168581 Z M59.0705657,16.2977606 C59.0705657,16.9726462 59.5668051,17.6078326 60.5989831,17.6078326 C61.9289047,17.6078326 62.8816843,16.1786631 62.8816843,14.9479894 L62.8816843,14.7097945 L62.4449937,14.7097945 C61.1547712,14.7097945 59.0705657,14.8884407 59.0705657,16.2977606 Z M67.233661,23.304661 L67.233661,9.21146186 L69.5362119,9.21146186 L69.5362119,9.94589619 C69.5362119,10.3230381 69.4965127,10.6406314 69.4965127,10.6406314 L69.5362119,10.6406314 C69.5362119,10.6406314 70.4095932,8.97326695 72.7915424,8.97326695 C75.5307839,8.97326695 77.2775466,11.1368708 77.2775466,14.2731038 C77.2775466,17.4887352 75.3124386,19.5729407 72.6525953,19.5729407 C70.6477881,19.5729407 69.7545572,18.1834703 69.7545572,18.1834703 L69.7148581,18.1834703 C69.7148581,18.1834703 69.7545572,18.5407627 69.7545572,19.0568517 L69.7545572,23.304661 L67.233661,23.304661 Z M69.6751589,14.3326525 C69.6751589,15.9007691 70.5286907,17.449036 72.1960551,17.449036 C73.5855254,17.449036 74.7368009,16.3176102 74.7368009,14.312803 C74.7368009,12.3873941 73.7046229,11.1368708 72.2159047,11.1368708 C70.9058326,11.1368708 69.6751589,12.0896504 69.6751589,14.3326525 Z M79.6211123,15.622875 L79.6211123,11.3750657 L78.3110403,11.3750657 L78.3110403,9.37025847 L79.680661,9.37025847 L79.680661,6.45237076 L82.1420085,6.45237076 L82.1420085,9.37025847 L84.4445593,9.37025847 L84.4445593,11.3750657 L82.1420085,11.3750657 L82.1420085,15.3052818 C82.1420085,16.9726462 83.4520805,17.2108411 84.1468157,17.2108411 C84.4247098,17.2108411 84.6033559,17.1711419 84.6033559,17.1711419 L84.6033559,19.3744449 C84.6033559,19.3744449 84.3056123,19.4339936 83.8292225,19.4339936 C82.4199026,19.4339936 79.6211123,19.0171525 79.6211123,15.622875 Z M85.6368496,16.4168581 C85.6368496,13.2012267 89.9839068,12.9828814 91.6314216,12.9828814 L91.9688644,12.9828814 L91.9688644,12.8439343 C91.9688644,11.5140127 91.1351822,11.0574725 90.023606,11.0574725 C88.5745869,11.0574725 87.2446653,12.0301017 87.2446653,12.0301017 L86.2918856,10.2237903 C86.2918856,10.2237903 87.8600021,8.97326695 90.2618009,8.97326695 C92.9216441,8.97326695 94.469911,10.4421356 94.469911,13.0027309 L94.469911,19.3347458 L92.1475106,19.3347458 L92.1475106,18.5010636 C92.1475106,18.104072 92.1872098,17.7864788 92.1872098,17.7864788 L92.1475106,17.7864788 C92.1673602,17.7864788 91.3733771,19.5729407 89.0708263,19.5729407 C87.2645149,19.5729407 85.6368496,18.4415148 85.6368496,16.4168581 Z M88.1775954,16.2977606 C88.1775954,16.9726462 88.6738348,17.6078326 89.7060127,17.6078326 C91.0359343,17.6078326 91.988714,16.1786631 91.988714,14.9479894 L91.988714,14.7097945 L91.5520233,14.7097945 C90.2618009,14.7097945 88.1775954,14.8884407 88.1775954,16.2977606 Z M98.623392,19.3347458 L94.9512204,9.21146186 L97.6110636,9.21146186 L99.7151187,15.483928 C99.9136144,16.0794153 100.052561,17.0123453 100.072411,17.0123453 L100.11211,17.0123453 C100.13196,17.0123453 100.270907,16.0794153 100.469403,15.483928 L102.573458,9.21146186 L105.233301,9.21146186 L101.600828,19.3347458 L98.623392,19.3347458 Z M106.46529,7.48454873 L106.46529,5.24154661 L108.966337,5.24154661 L108.966337,7.48454873 L106.46529,7.48454873 Z M106.46529,19.3347458 L106.46529,9.21146186 L108.986186,9.21146186 L108.986186,19.3347458 L106.46529,19.3347458 Z M110.162231,18.0842225 L111.313506,16.3176102 C111.313506,16.3176102 112.425083,17.4291864 114.072597,17.4291864 C114.787182,17.4291864 115.402519,17.1115932 115.402519,16.5161059 C115.402519,15.0075381 110.479824,15.2060339 110.479824,11.9507034 C110.479824,10.0649936 112.167038,8.97326695 114.350492,8.97326695 C116.633193,8.97326695 117.744769,10.1245424 117.744769,10.1245424 L116.811839,11.9904025 C116.811839,11.9904025 115.878909,11.1170212 114.330642,11.1170212 C113.675606,11.1170212 113.04042,11.3949153 113.04042,12.0301017 C113.04042,13.4592712 117.963114,13.280625 117.963114,16.5359555 C117.963114,18.2231695 116.494246,19.5729407 114.092447,19.5729407 C111.571551,19.5729407 110.162231,18.0842225 110.162231,18.0842225 Z M120.247131,15.622875 L120.247131,11.3750657 L118.937059,11.3750657 L118.937059,9.37025847 L120.30668,9.37025847 L120.30668,6.45237076 L122.768028,6.45237076 L122.768028,9.37025847 L125.070578,9.37025847 L125.070578,11.3750657 L122.768028,11.3750657 L122.768028,15.3052818 C122.768028,16.9726462 124.0781,17.2108411 124.772835,17.2108411 C125.050729,17.2108411 125.229375,17.1711419 125.229375,17.1711419 L125.229375,19.3744449 C125.229375,19.3744449 124.931631,19.4339936 124.455242,19.4339936 C123.045922,19.4339936 120.247131,19.0171525 120.247131,15.622875 Z"></path><path fill="#FF6633" d="M21.279661,13.4427966 C24.438917,13.4427966 27,16.0038796 27,19.1631356 C27,22.3223916 24.438917,24.8834746 21.279661,24.8834746 C18.120405,24.8834746 15.559322,22.3223916 15.559322,19.1631356 C15.559322,16.0038796 18.120405,13.4427966 21.279661,13.4427966 Z M13.5,0 C16.659256,0 19.220339,2.561083 19.220339,5.72033898 C19.220339,7.66783469 18.2471279,9.38802477 16.7605127,10.4211023 C13.6160808,12.0499029 11.4623173,15.3254261 11.4408401,19.1060541 C11.440678,22.3223916 8.87959497,24.8834746 5.72033898,24.8834746 C2.561083,24.8834746 1.0658141e-14,22.3223916 1.0658141e-14,19.1631356 C1.0658141e-14,16.9452047 1.26226349,15.0220913 3.10760257,14.0729833 C5.84272107,12.386546 7.68363878,9.36987022 7.77966102,5.94397937 L7.77966102,5.72033898 L7.77966102,5.72033898 C7.77966102,2.561083 10.340744,0 13.5,0 Z"></path></g></svg>